<svg xmlns="http://www.w3.org/2000/svg" xmlns:xlink="http://www.w3.org/1999/xlink" viewBox="0 0 2253.2 2927.5"><defs><style>.cls-1{stroke:#231f20;stroke-miterlimit:10;fill:url(#linear-gradient);}.cls-2{fill:#fff;}</style><linearGradient id="linear-gradient" x1="1872.74" y1="473.05" x2="369.96" y2="2482.1" gradientTransform="matrix(0.87, 0, 0, 1, 137.19, -0.71)" gradientUnits="userSpaceOnUse"><stop offset="0" stop-color="#00b59f"/><stop offset="0.07" stop-color="#00b397"/><stop offset="0.48" stop-color="#00a96e"/><stop offset="0.81" stop-color="#00a354"/><stop offset="1" stop-color="#00a14b"/></linearGradient></defs><g id="Layer_2" data-name="Layer 2"><g id="Layer_1-2" data-name="Layer 1"><path class="cls-1" d="M2206.1,2231.3,1192,2909.3a105,105,0,0,1-115.8.6L55.2,2242.5a105.1,105.1,0,0,1-47.6-87.3L.5,784a104.7,104.7,0,0,1,46.6-87.8l1014.1-678a105,105,0,0,1,115.8-.6L2198,685a105.1,105.1,0,0,1,47.6,87.3l7.1,1371.2A105.1,105.1,0,0,1,2206.1,2231.3Z"/><path class="cls-2" d="M1740.1,1596.9q-.4,127.5-185.9,128H994.7c-20.9,0-37.9,16.4-37.9,36.7v511.1c0,20.3-16.9,36.7-37.8,36.7H643.3c-20.9,0-37.8-16.4-37.8-36.7V731.2c0-20.3,16.9-36.7,37.8-36.7h910.9q185.5.4,185.9,127.9Zm-354.4-116.1V938.6c0-20.3-16.9-36.7-37.8-36.7H994.7c-20.9,0-37.9,16.4-37.9,36.7v542.2c0,20.2,17,36.7,37.9,36.7h353.2C1368.8,1517.5,1385.7,1501,1385.7,1480.8Z"/></g></g></svg>